<svg xmlns="http://www.w3.org/2000/svg" viewBox="0 0 32 32" width="32" height="32">
  <rect width="32" height="32" fill="#0b0f0b"/>
  <ellipse cx="16" cy="18" rx="7" ry="8" fill="#00ff41"/>
  <ellipse cx="16" cy="9" rx="4" ry="3.5" fill="#00ff41"/>
  <rect x="13" y="7" width="2" height="2" fill="#ff3333"/>
  <rect x="17" y="7" width="2" height="2" fill="#ff3333"/>
  <line x1="13" y1="6"  x2="10" y2="2" stroke="#00ff41" stroke-width="1.5" stroke-linecap="round"/>
  <rect x="9"  y="1"  width="2" height="2" fill="#00ff41"/>
  <line x1="19" y1="6"  x2="22" y2="2" stroke="#00ff41" stroke-width="1.5" stroke-linecap="round"/>
  <rect x="21" y="1"  width="2" height="2" fill="#00ff41"/>
  <line x1="9"  y1="15" x2="4"  y2="13" stroke="#00ff41" stroke-width="1.5" stroke-linecap="round"/>
  <line x1="9"  y1="18" x2="4"  y2="18" stroke="#00ff41" stroke-width="1.5" stroke-linecap="round"/>
  <line x1="9"  y1="21" x2="4"  y2="23" stroke="#00ff41" stroke-width="1.5" stroke-linecap="round"/>
  <line x1="23" y1="15" x2="28" y2="13" stroke="#00ff41" stroke-width="1.5" stroke-linecap="round"/>
  <line x1="23" y1="18" x2="28" y2="18" stroke="#00ff41" stroke-width="1.5" stroke-linecap="round"/>
  <line x1="23" y1="21" x2="28" y2="23" stroke="#00ff41" stroke-width="1.5" stroke-linecap="round"/>
  <line x1="16" y1="11" x2="16" y2="26" stroke="#0b0f0b" stroke-width="1.5"/>
  <text x="16" y="22" font-family="monospace" font-size="7" font-weight="bold"
        fill="#ff3333" text-anchor="middle" opacity="0.9">?</text>
  <rect width="32" height="32" fill="none" stroke="#00ff41" stroke-width="1" opacity="0.3"/>
</svg>
